<?xml version="1.0" encoding="UTF-8" standalone="no"?>
<svg
   xmlns:dc="http://purl.org/dc/elements/1.1/"
   xmlns:cc="http://creativecommons.org/ns#"
   xmlns:rdf="http://www.w3.org/1999/02/22-rdf-syntax-ns#"
   xmlns:svg="http://www.w3.org/2000/svg"
   xmlns="http://www.w3.org/2000/svg"
   width="240"
   height="390"
   viewBox="0 0 80 130"
   version="1.1"
   id="Fermentation">
  <path
     id="Bung"
     d="M 36,58 H 32 L 26,43 h 10 m 5,0 h 10 l -5,15 h -5"
     style="fill:#d54500;stroke:black;stroke-width:1;stroke-miterlimit:4;stroke-dasharray:none;stroke-dashoffset:0;stroke-opacity:1" />
  <g>
   <path
      id="Liquid"
      d="m 36,20 v 9 -9 h 10 v 8 l -6,6 h -8 l -6,-6 v -8 z"
      style="fill:#c9fcfc;fill-opacity:0.9;stroke:black;stroke-width:1;stroke-miterlimit:4;stroke-dasharray:none;stroke-dashoffset:0;stroke-opacity:1">
      <animate
         id="Animation"
         attributeName="d"
         from="M 36,25 v 4 -15 h 10 v 14 l -6,6 h -8 l -6,-6 v -3 z"
         to="M 36,11 v 18 -1.01 h 10 v 0.01 l -6,6 h -8 l -6,-6 v -17 z" 
         dur="10s"
         repeatCount="indefinite"/>
   </path>
  <path
     id="Airlock"
     d="m 24,5 v 5 h 2 v 18 l 6,6 h 8 l 6,-6 V 14 28 L 36,38 v 23 h 5 V 40 L 51,30 V 14 L 46,8 h -5 l -5,6 V 29 10 h 2 v -5 Z"
     style="fill:black;fill-opacity:0;stroke:black;stroke-width:1;stroke-miterlimit:4;stroke-dasharray:none;stroke-dashoffset:0;stroke-opacity:1" />
  </g>
  <g>
  <rect
     y="78"
     x="2"
     height="50"
     width="75"
     id="Beer"
     fill="#d97556"
     style="fill-opacity:0.9;stroke:black;stroke-width:1;stroke-miterlimit:4;stroke-dasharray:none;stroke-dashoffset:0;stroke-opacity:1" />
  <path
     id="Fermenter"
     d="M 28,48 H 18 L 2,63 v 65 H 77 V 63 L 57,48 h -8"
     style="fill-opacity:0;stroke:black;stroke-width:1;stroke-miterlimit:4;stroke-dasharray:none;stroke-dashoffset:0;stroke-opacity:1" />
   <text
      y="120"
      x="39"
      height="10"
      width="75"
      style="font-size:8;fill:white;fill-opacity:0.5;stroke:black;stroke-width:0.2;stroke-linecap:butt;stroke-linejoin:miter;stroke-opacity:1.0;font-family:sans-serif;text-align:center;text-anchor:middle;">
      <tspan id="BeerName">Beer</tspan>
    </text>   
    <text
      y="84"
      x="69"
      style="font-size:6;fill:white;fill-opacity:0.5;stroke:black;stroke-width:0.2;stroke-linecap:butt;stroke-linejoin:miter;stroke-opacity:1.0;font-family:sans-serif;text-align:center;text-anchor:middle;">
      <tspan id="BeerAbv"></tspan>
    </text>
  </g>
  <g id="Tilt" transform="translate(38, 78) rotate(90)">
   <rect
      ry="0"
      y="-5"
      x="-10"
      height="10"
      width="40"
      id="TiltFrame"
      fill="#ba73f2"
      style="fill-opacity:0.9;stroke:black;stroke-width:1;stroke-miterlimit:4;stroke-dasharray:none;stroke-dashoffset:0;stroke-opacity:1"/>
   <text
      y="2"
      x="10"
      height="10"
      width="40"
      style="font-weight:bold;font-size:4;line-height:1.25;font-family:sans-serif;text-align:center;text-anchor:middle;opacity:1;fill:black;fill-opacity:1"
      xml:space="preserve"><tspan id="TiltDetails">25.1C, 1.010SG</tspan></text>
   </g>
</svg>
